# xmcd
#
# Track frame offsets: 
#        182
#        10025
#        23120
#        38255
#        50935
#        61860
#        78105
#        97235
#        111865
#        129472
#        141430
#        154082
#        168045
#        180545
#        193657
#        205055
#        221472
#        237710
#
# Disc length: 3398 seconds
#
# Revision: 4
# Processed by: cddbd v1.5.2PL0 Copyright (c) Steve Scherf et al.
# Submitted via: ExactAudioCopy v0.99pb5
#
DISCID=f10d4412
DTITLE=Anne Murray - Her Greatest Hits And Finest Performances - CD 1
DYEAR=1990
DGENRE=Country
TTITLE0=Snowbird
TTITLE1=Danny's song
TTITLE2=Shadows in the moonlight
TTITLE3=I just fall in love again
TTITLE4=Daydream believer
TTITLE5=You needed me
TTITLE6=Now and forever (you and me)
TTITLE7=Could I have this dance
TTITLE8=Broken hearted me
TTITLE9=Blessed are the believers
TTITLE10=Love song
TTITLE11=You won't see me
TTITLE12=Tennessee waltz
TTITLE13=Just another woman in love
TTITLE14=Hey baby
TTITLE15=Do you think of me?
TTITLE16=Time don't run out on me
TTITLE17=Nobody loves me like you do (with Dave Loggins)
EXTD=
EXTT0=
EXTT1=
EXTT2=
EXTT3=
EXTT4=
EXTT5=
EXTT6=
EXTT7=
EXTT8=
EXTT9=
EXTT10=
EXTT11=
EXTT12=
EXTT13=
EXTT14=
EXTT15=
EXTT16=
EXTT17=
PLAYORDER=
